inDegrees=no
num_controls=7
num_derivatives=13
num_iterations=76
num_multipliers=7
num_parameters=0
num_slacks=7
num_states=26
objective=5.637658
objective_accelerations=0.237932
objective_balance=0.063611
objective_effort=0.358045
objective_height=4.911706
objective_ligament=0.066364
solver_duration=662.985773
status=Solve_Succeeded
success=true
DataType=double
version=3
OpenSimVersion=4.4-2022-07-23-0e9fedc
endheader
time	/jointset/ground_pelvis/pelvis_tilt/value	/jointset/ground_pelvis/pelvis_tx/value	/jointset/ground_pelvis/pelvis_ty/value	/jointset/hip_r/hip_flexion_r/value	/jointset/hip_r/hip_adduction_r/value	/jointset/hip_r/hip_rotation_r/value	/jointset/back/lumbar_extension/value	/jointset/patellofemoral_r/patellar_flexion_r/value	/jointset/knee_r/knee_flexion_r/value	/jointset/knee_r/knee_adduction_r/value	/jointset/knee_r/knee_rotation_r/value	/jointset/ankle_r/ankle_angle_r/value	/jointset/subtalar_r/subtalar_angle_r/value	/jointset/ground_pelvis/pelvis_tilt/speed	/jointset/ground_pelvis/pelvis_tx/speed	/jointset/ground_pelvis/pelvis_ty/speed	/jointset/hip_r/hip_flexion_r/speed	/jointset/hip_r/hip_adduction_r/speed	/jointset/hip_r/hip_rotation_r/speed	/jointset/back/lumbar_extension/speed	/jointset/patellofemoral_r/patellar_flexion_r/speed	/jointset/knee_r/knee_flexion_r/speed	/jointset/knee_r/knee_adduction_r/speed	/jointset/knee_r/knee_rotation_r/speed	/jointset/ankle_r/ankle_angle_r/speed	/jointset/subtalar_r/subtalar_angle_r/speed	/forceset/tau_hip_flexion_r	/forceset/tau_hip_adduction_r	/forceset/tau_hip_rotation_r	/forceset/tau_knee_flexion_r	/forceset/tau_ankle_angle_r	/forceset/tau_subtalar_angle_r	/forceset/tau_lumbar_extension	lambda_cid13_p0	lambda_cid14_p0	lambda_cid14_p1	lambda_cid14_p2	lambda_cid14_p3	lambda_cid14_p4	lambda_cid14_p5	/jointset/ground_pelvis/pelvis_tilt/accel	/jointset/ground_pelvis/pelvis_tx/accel	/jointset/ground_pelvis/pelvis_ty/accel	/jointset/hip_r/hip_flexion_r/accel	/jointset/hip_r/hip_adduction_r/accel	/jointset/hip_r/hip_rotation_r/accel	/jointset/back/lumbar_extension/accel	/jointset/patellofemoral_r/patellar_flexion_r/accel	/jointset/knee_r/knee_flexion_r/accel	/jointset/knee_r/knee_adduction_r/accel	/jointset/knee_r/knee_rotation_r/accel	/jointset/ankle_r/ankle_angle_r/accel	/jointset/subtalar_r/subtalar_angle_r/accel	gamma_cid13_p0	gamma_cid14_p0	gamma_cid14_p1	gamma_cid14_p2	gamma_cid14_p3	gamma_cid14_p4	gamma_cid14_p5
0	-0.006516210516760027	0.09626099092059748	0.9427240621092442	0.1762555651711513	-0.2321524459117774	-0.2616384565635807	-0.0385979564078546	0.07317816487786509	0.07317816487761825	0.1745322038278088	0.1745306162566105	0.0324735960626065	-0.003451554476554266	0	0	0	0	0	0	0	0	0	0	0	0	0	0.2068916760424525	-0.09096766065234391	-0.04576193171168212	-0.410906963103826	0.4487398124390644	-0.214250112397004	-0.1011869694788351	-39.07627484644518	92.00812035161908	-66.87040219976032	-0.3796708549748348	-51.79497150468295	-683.4817405924008	1.11532704851577	-0.2198472346154307	-0.1919197978066172	-0.2724085848430407	4.308313059684268	0.3116969816074288	1.712696920080369	-4.170129446406468	6.46151369542924	6.461513695429027	-2.367527435702308	0.1042693487474075	3.090404913966276	1.034056007282048	5.640067500350381e-08	4.314176533320314e-08	-3.319626093937407e-07	9.942899587059104e-08	6.267556026141679e-09	4.611707974708125e-09	-1.419058516743084e-07
0.01	-0.006525214105205052	0.09625483472984452	0.9427111752696498	0.1764605690993564	-0.2321358483796545	-0.2615452897198313	-0.03880555904447203	0.0734922950257486	0.07349229502621871	0.1744134294026494	0.1745259010436767	0.03262918929284455	-0.003398615331936599	-0.001916841601608123	-0.00090299108475996	-0.00256687741457518	0.04056817593932667	0.003273229091046177	0.01857065650164771	-0.04111422209990841	0.06256920443572267	0.0625692044356993	-0.02358128390587856	-0.0009409324774679135	0.03138134217627021	0.01060187617192818	0.2146182654188083	-0.1595327126491796	-0.04794895330609692	-0.4311532106303185	0.4694686525110205	-0.161062445125243	-0.1055260250814478	-39.08665403217278	100.7642429108552	-42.5684953661328	-3.876400111841854	-61.89123776875863	-684.6016229551259	51.37863402218613	-0.1950173131259627	0.009749552607825236	-0.2472528220267682	3.866182300543249	0.32815595746014	1.91986801025581	-4.021122809333144	6.11608877364703	6.116088773645746	-2.327432041087858	-0.1929276244429639	3.201415113581399	1.075319226971843	8.842894099046143e-08	5.962193177149958e-08	-5.478214212997057e-07	1.768889304001958e-07	2.729214608607806e-08	-4.761545995183343e-08	-3.076347840252438e-07
0.02	-0.006556869047567399	0.09624949629153394	0.9426729345554571	0.177058277274394	-0.2320879145396357	-0.2612682927113786	-0.03941211474563906	0.07442441020895212	0.07442441020902991	0.1740640415012048	0.174511845889191	0.03310647919379283	-0.003239244264633409	-0.004530270810470747	0.0001635504884780955	-0.005070774919657686	0.07854084945863943	0.006267261566620775	0.03676603280493296	-0.07979061290196304	0.1235970071115073	0.1235970071114603	-0.04612269473385381	-0.001867988092581691	0.06433933411747254	0.02128638453675384	0.2223448547886624	-0.2280977646466971	-0.05013597490378584	-0.4513994581609885	0.4901974925810038	-0.107874777854608	-0.1098650806874523	-39.11719578169583	109.5813284122829	-18.27235741223941	-7.353427060848946	-72.17041203415965	-684.8396164699841	101.4583266872715	-0.3591647560675255	0.2019867337940756	-0.2598126029445951	3.78921257568104	0.2558576585121544	1.637640880397896	-3.682563186836348	6.153233343442944	6.153233343442681	-2.159552820119276	0.10704472122853	3.405734866953615	1.050582445860889	1.20457206977419e-07	7.610209820979603e-08	-7.636802332056708e-07	2.543488649298005e-07	4.831673614601443e-08	-9.984262787837498e-08	-4.733637163761792e-07
0.03	-0.006616396148881882	0.09626011527814421	0.9426097597809248	0.1780264599955433	-0.2320116199773347	-0.2608144803375393	-0.04039512303711727	0.07595987893845949	0.07595987893863888	0.1734949149433202	0.1744916142702355	0.03391566937119468	-0.002974037872505468	-0.007299329581082746	0.001834253204938379	-0.007571547972909698	0.1149947931802402	0.008921668939520431	0.05389655908934619	-0.1166086581149208	0.1832375060321176	0.1832375060320977	-0.06747424789795194	-0.002171057469571598	0.09718862076639487	0.03161266664611633	0.2125223597187566	-0.2018372300559349	-0.04727023947369837	-0.4335723532260635	0.465927716475072	-0.1216274225920558	-0.1028541940015349	-39.16717958778809	101.2277797848477	-25.65214300718034	-6.240434489365469	-64.95222474774121	-684.3900833256217	84.93699170916251	-0.2243904878338421	0.1307227472242336	-0.2463350341873392	3.558360632727533	0.2596751167051689	1.735833824451566	-3.651067098819664	5.830549024082367	5.830549024085773	-2.088786682932886	-0.09782191800193427	3.178037000632717	1.002225192405922	1.310725972631137e-07	7.992386014411706e-08	-8.256174405154075e-07	2.379078153616037e-07	5.494586472983553e-08	-1.590972414888392e-07	-4.724748279596307e-07
0.04	-0.006701336647923932	0.09628366343325023	0.9425213522003306	0.1793561572265638	-0.2319108927733071	-0.2601923476366529	-0.04174024016274654	0.07808397082940476	0.07808397082948949	0.1727191068294937	0.1744685841248746	0.03504405470243271	-0.00260985383950122	-0.009612950363212171	0.00274938418763367	-0.01011733613204242	0.1508437513947172	0.01115378991343496	0.07043009825321908	-0.1522123797397795	0.2413216392612711	0.2413216392612793	-0.08745900579716739	-0.002427692879888089	0.1281783648861909	0.04108191271276241	0.2026998646508361	-0.1755766954651796	-0.04440450404775421	-0.4157452482890077	0.441657940369726	-0.1353800673293107	-0.09584330731452238	-39.23597549199496	92.93001410854212	-33.05140552308868	-5.09093321348784	-57.90262001244852	-683.1019257919155	68.2153468960673	-0.2680771583720715	0.05087238704202159	-0.2688156241208022	3.668215474255898	0.1714003787144827	1.518243456282585	-3.439698469217098	5.841960205152497	5.841960205152424	-1.88619376714112	0.1163315145706687	3.033826361129196	0.8791752373172166	1.412464849570298e-07	8.34846240474283e-08	-8.843810064932634e-07	2.195306630285038e-07	6.127817967497385e-08	-2.184967508866008e-07	-4.681505205581856e-07
0.05	-0.006807727515046073	0.09631371750974201	0.9424071906861423	0.1810407719697697	-0.2317899545670955	-0.2594089181329473	-0.04343472572140591	0.0807816289223585	0.08078162892234897	0.1717503480057533	0.1744442847697767	0.03647458400002926	-0.002154866783129561	-0.01162714333244714	0.003249159313342474	-0.01272458359786561	0.18589272736267	0.01298593212387704	0.08613960267875383	-0.1864448912036814	0.2979642233425815	0.2979642233425923	-0.1061030667719083	-0.002417829526918296	0.1577699384438011	0.04983431835694639	0.1968543179526969	-0.1673820492665259	-0.0426292698156785	-0.4074879632777225	0.4291758199533127	-0.136718694491858	-0.09133011312364882	-39.32271466286466	88.89411184423807	-34.40881273637878	-4.795272113451009	-55.05579891925419	-682.5922638765941	64.26945138233035	-0.1623613521692375	0.04770161478470787	-0.2581660211522639	3.395280693184734	0.1818494217690922	1.579928488474657	-3.379051367675236	5.538515783365781	5.538515783365791	-1.825168449908942	-0.05446622789693943	2.898219687822317	0.860981028875989	1.341511459314562e-07	7.666879751843311e-08	-8.36619155842851e-07	2.044588990695964e-07	6.195554509622069e-08	-2.557967770001737e-07	-4.498323541026117e-07
0.06	-0.006933114508995124	0.09634840364538218	0.9422666593546305	0.1830702848796397	-0.2316521492828597	-0.2584718686744915	-0.04546434117127345	0.08403833451075127	0.08403833451080674	0.1706008173353153	0.1744205280531005	0.0381963084001377	-0.001614814110143079	-0.0134121757407918	0.003675796017313908	-0.0153912995967796	0.2198233847352863	0.01452720551659224	0.1011540892156307	-0.2192383579756509	0.3531311383737232	0.3531311383737282	-0.123613375237442	-0.002319165116162906	0.1864173853912531	0.05809503603742635	0.1910087712540181	-0.1591874030675983	-0.04085403558242236	-0.3992306782665094	0.4166936995370775	-0.1380573216540996	-0.08681691893350328	-39.42627960902087	84.90937236317629	-35.77834915638787	-4.473590008808859	-52.36601978328199	-681.3256715605468	60.1534405122886	-0.2222450461949918	0.03624470269535022	-0.2807093307390137	3.444551755188282	0.113226615168685	1.379239878546214	-3.151889530831208	5.546826395119262	5.546826395117515	-1.659443265298572	0.1340917261326817	2.845001039098281	0.7808376445761678	1.263286815703252e-07	6.941606191860395e-08	-7.84372024492301e-07	1.895263093580233e-07	6.239480737961947e-08	-2.921662985544121e-07	-4.309249725289691e-07
0.07000000000000001	-0.007075533523135561	0.09638680644492725	0.9420990627981237	0.1854341543518339	-0.2315004453645593	-0.2573895106153551	-0.04781475441723315	0.08783968862349112	0.08783968862355346	0.1692820504029875	0.1743995285836634	0.04019957098655996	-0.0009946954090873212	-0.01504510671269067	0.003974849439496162	-0.01814302236637409	0.2527938678341635	0.01577989138638523	0.1152243746523053	-0.2506318028783767	0.4068761648054425	0.4068761648054424	-0.1399727205330752	-0.001905366922080087	0.2140508964706948	0.06585718946368249	0.1848703868412288	-0.1547754720198863	-0.03883522563528517	-0.3906222132556781	0.4018815651040301	-0.1349672267471334	-0.08212316296901115	-39.54554790024208	80.30209844789846	-35.35786794269857	-4.409443671654823	-49.13856550317585	-680.5936495658854	59.57514476696691	-0.1298215078673747	0.02226098036631112	-0.274714223576242	3.199812094761256	0.1261675302597919	1.406997309534957	-3.101198720817057	5.248787692784767	5.248787692785073	-1.599181975427398	-0.008614322330028214	2.694918045225253	0.7630751401348417	1.13823831589511e-07	6.026428913071637e-08	-6.985965393921004e-07	1.702265504490137e-07	5.978363629698261e-08	-3.188852296072989e-07	-3.969693909415025e-07
0.08	-0.007233482723967674	0.0964273048423734	0.9419034869192248	0.1881230317565779	-0.2313372389960722	-0.2561692348152053	-0.05047272746236806	0.09217058238560136	0.09217058238566064	0.1678046896550482	0.1743819394582274	0.04247364706436316	-0.0002991209840800384	-0.01651821309201313	0.00409491559753111	-0.0209871640752123	0.2848249712339834	0.01682769555112942	0.1287376374212283	-0.2807503178141751	0.45903906826062	0.4590390682606206	-0.1553321383779966	-0.001637096263032421	0.2405800836644816	0.07318618082931921	0.178732002428508	-0.150363540972147	-0.03681641568746127	-0.382013748244985	0.3870694306709611	-0.1318771318401563	-0.07742940700442999	-39.67918395803395	75.74158666450036	-34.94265260632723	-4.329090501371853	-46.05684807000964	-679.180578206434	58.85484494142242	-0.1902801276806587	0.0004472498665793879	-0.2991931185877978	3.25667581537656	0.07225027415862977	1.267835344992688	-2.896903537446317	5.230401799811236	5.230401799810579	-1.45945777515549	0.1049862191289406	2.624136261967948	0.6942052324521524	1.010168922138785e-07	5.098999781456695e-08	-6.106579346951482e-07	1.506450386885566e-07	5.697566306169829e-08	-3.44981541918163e-07	-3.620429577402409e-07
0.09	-0.007405654376836044	0.09646819100552959	0.9416789283782774	0.1911278826593236	-0.2311647088012368	-0.2548179523509448	-0.05342533060326415	0.09701571849733343	0.0970157184973881	0.1661790099038515	0.1743677311549222	0.04500768282861312	0.0004675091531515858	-0.01789731753646627	0.004061498177966026	-0.0239429477991417	0.3159871172978237	0.01764959917735743	0.141415170044022	-0.3095612991788788	0.5097254386848862	0.5097254386849083	-0.1696436927258621	-0.00122323968257523	0.2660544322858509	0.08007701683076818	0.1728675778270435	-0.1480952406260935	-0.03485351467507444	-0.374543454926671	0.3730750757601164	-0.1268034807760345	-0.07287189698970781	-39.82577681095711	71.49011520133107	-33.62346732766743	-4.379605833842274	-43.2647335946861	-678.2924610251537	59.98306115053259	-0.1088887400745532	-0.008347714768688074	-0.2966009701889454	3.022280504406007	0.08280248691994882	1.252194938484477	-2.841843759417781	4.948327359399359	4.948327359402817	-1.393057197600277	0.006827393364303007	2.483210495862811	0.6770201089593236	8.262145332205141e-08	4.077008065985801e-08	-4.784275950777797e-07	1.405098277047075e-07	4.970148223107155e-08	-3.559207978068917e-07	-3.248694183680685e-07
